# xmcd CD database file
# Generated: su syys   14 23:15:05 2003 by KSCD
# 
# Track frame offsets:
#       150
#       15970
#       28350
#       40815
#       56270
#       71170
#
# Disc length: 1145 seconds
#
# Revision: 1
# Processed by: cddbd v1.4PL0 Copyright (c) Steve Scherf et al.
# Submitted via: Kscd 1.3.3
#
DISCID=47047706
DTITLE=Mika Sundqvist - Moottorikelkka on moottorikelkka
DYEAR=1900
DGENRE=
TTITLE0=Moottorikelkka on moottorikelkka
TTITLE1=Pilkkimiehen rouva
TTITLE2=Debet ja kredit Irma
TTITLE3=Vain elämää
TTITLE4=Ei tippa tapa
TTITLE5=Kihniön kipakkaa
EXTD=
EXTT0=
EXTT1=
EXTT2=
EXTT3=
EXTT4=
EXTT5=
PLAYORDER=
